<svg xmlns="http://www.w3.org/2000/svg" width="800" height="500" viewBox="0 0 800 500" preserveAspectRatio="xMidYMid slice">
  <defs>
    <linearGradient id="bg" x1="0" y1="0" x2="0" y2="1">
      <stop offset="0" stop-color="#13263f"/>
      <stop offset="1" stop-color="#0a1729"/>
    </linearGradient>
    <radialGradient id="spot" cx="0.5" cy="0.42" r="0.6">
      <stop offset="0" stop-color="#c4a253" stop-opacity="0.22"/>
      <stop offset="1" stop-color="#c4a253" stop-opacity="0"/>
    </radialGradient>
    <linearGradient id="carBody" x1="0" y1="0" x2="0" y2="1">
      <stop offset="0" stop-color="#26405f"/>
      <stop offset="0.5" stop-color="#13243c"/>
      <stop offset="1" stop-color="#070d18"/>
    </linearGradient>
  </defs>
  <rect width="800" height="500" fill="url(#bg)"/>
  <rect width="800" height="500" fill="url(#spot)"/>
  <ellipse cx="400" cy="392" rx="320" ry="26" fill="#000" opacity="0.4"/>
  <!-- sedan -->
  <g transform="translate(150,150)">
    <path d="M6 150 C4 128 22 116 60 112 C96 84 160 70 250 69 C346 68 422 82 460 112 C504 116 538 128 548 150 L550 192 C550 202 542 208 532 208 L22 208 C12 208 4 202 4 192 Z" fill="url(#carBody)"/>
    <path d="M128 110 C160 84 206 73 270 73 C344 73 398 88 434 114 C441 118 438 124 430 124 L142 124 C130 124 120 117 128 110 Z" fill="#0b1828"/>
    <path d="M158 116 C188 92 230 84 276 84 C268 84 236 86 208 118 Z" fill="#33527a" opacity="0.85"/>
    <path d="M290 84 C346 86 392 99 422 118 L300 118 Z" fill="#33527a" opacity="0.85"/>
    <rect x="24" y="146" width="524" height="2.5" rx="1.25" fill="#c4a253" opacity="0.6"/>
    <ellipse cx="536" cy="168" rx="14" ry="8" fill="#fdf0c8"/>
  </g>
  <circle cx="300" cy="358" r="38" fill="#05090f"/>
  <circle cx="300" cy="358" r="17" fill="#22364f"/>
  <circle cx="300" cy="358" r="7" fill="#c4a253" opacity="0.7"/>
  <circle cx="560" cy="358" r="38" fill="#05090f"/>
  <circle cx="560" cy="358" r="17" fill="#22364f"/>
  <circle cx="560" cy="358" r="7" fill="#c4a253" opacity="0.7"/>
</svg>
