<svg xmlns="http://www.w3.org/2000/svg" width="800" height="500" viewBox="0 0 800 500" preserveAspectRatio="xMidYMid slice">
  <defs>
    <linearGradient id="bg2" x1="0" y1="0" x2="0" y2="1">
      <stop offset="0" stop-color="#13263f"/>
      <stop offset="1" stop-color="#0a1729"/>
    </linearGradient>
    <radialGradient id="spot2" cx="0.5" cy="0.42" r="0.6">
      <stop offset="0" stop-color="#c4a253" stop-opacity="0.22"/>
      <stop offset="1" stop-color="#c4a253" stop-opacity="0"/>
    </radialGradient>
    <linearGradient id="suvBody" x1="0" y1="0" x2="0" y2="1">
      <stop offset="0" stop-color="#26405f"/>
      <stop offset="0.5" stop-color="#13243c"/>
      <stop offset="1" stop-color="#070d18"/>
    </linearGradient>
  </defs>
  <rect width="800" height="500" fill="url(#bg2)"/>
  <rect width="800" height="500" fill="url(#spot2)"/>
  <ellipse cx="400" cy="396" rx="330" ry="26" fill="#000" opacity="0.4"/>
  <!-- SUV -->
  <g transform="translate(150,116)">
    <path d="M8 200 C6 176 22 164 54 160 L86 96 C92 80 106 70 124 70 L398 70 C418 70 436 82 444 100 L470 160 C506 164 540 176 542 200 L544 244 C544 254 536 260 526 260 L24 260 C14 260 6 254 6 244 Z" fill="url(#suvBody)"/>
    <!-- greenhouse -->
    <path d="M110 96 C114 86 122 80 132 80 L392 80 C404 80 414 88 420 100 L438 156 L94 156 Z" fill="#0b1828"/>
    <!-- windows -->
    <rect x="120" y="96" width="120" height="54" rx="5" fill="#33527a" opacity="0.85"/>
    <rect x="252" y="96" width="120" height="54" rx="5" fill="#33527a" opacity="0.85"/>
    <rect x="384" y="100" width="44" height="50" rx="5" fill="#33527a" opacity="0.85"/>
    <!-- chrome belt -->
    <rect x="26" y="196" width="518" height="2.5" rx="1.25" fill="#c4a253" opacity="0.6"/>
    <ellipse cx="530" cy="184" rx="14" ry="9" fill="#fdf0c8"/>
  </g>
  <circle cx="300" cy="376" r="42" fill="#05090f"/>
  <circle cx="300" cy="376" r="19" fill="#22364f"/>
  <circle cx="300" cy="376" r="8" fill="#c4a253" opacity="0.7"/>
  <circle cx="566" cy="376" r="42" fill="#05090f"/>
  <circle cx="566" cy="376" r="19" fill="#22364f"/>
  <circle cx="566" cy="376" r="8" fill="#c4a253" opacity="0.7"/>
</svg>
